# xmcd CD database file
# Generated: Thu May 3 10:50:00 2001 by KSCD
# 
# Track frame offsets:
#       150
#       12684
#       24163
#       34074
#       41503
#       52530
#       63484
#       78260
#       89363
#       100839
#       114489
#       129565
#       143441
#       152147
#       162203
#       175788
#       186891
#
# Disc length: 2630 seconds
#
# Revision: 2
# Processed by: cddbd v1.4b41PL1 Copyright (c) Steve Scherf et al.
# Submitted via: Kscd 1.2.7
#
DISCID=cb0a4411
DTITLE=The New Pioneers - Way Out There
DYEAR=1900
DGENRE=
TTITLE0=Way Out There
TTITLE1=Blue Bonnet Girl
TTITLE2=Sierra Nevada
TTITLE3=Cowboy Jubliee
TTITLE4=Ridin' the Range With You
TTITLE5=Moonlight Melody
TTITLE6=Tumbleweed Trail
TTITLE7=He's Ridin' Home
TTITLE8=Home on the Range
TTITLE9=Lovesong of the Waterfall
TTITLE10=Song of the Prarie
TTITLE11=Still Water Pool
TTITLE12=Trail Dreamin'
TTITLE13=Grey Eagle
TTITLE14=Wind
TTITLE15=Cottage in the Clouds
TTITLE16=When the Moon Comes Over Sun Valley
EXTD=http://www.newpioneersmusic.com/
EXTT0=
EXTT1=
EXTT2=
EXTT3=
EXTT4=
EXTT5=
EXTT6=
EXTT7=
EXTT8=
EXTT9=
EXTT10=
EXTT11=
EXTT12=
EXTT13=
EXTT14=
EXTT15=
EXTT16=
PLAYORDER=
